# xmcd
#
# Track frame offsets:
#	150
#	38506
#	74656
#	109018
#	141053
#	174086
#	208001
#	240221
#	275292
#	313060
#
# Disc length: 4557 seconds
#
# Revision: 1
# Processed by: cddbd v1.5.2PL0 Copyright (c) Steve Scherf et al.
# Submitted via: audiograbber 1.83.01
#
DISCID=8211cb0a
DTITLE=Avalon - The Remixes - Vol One
DYEAR=1900
DGENRE=
TTITLE0=Avalon vs Mr Peculiar - Final Transmission (Zen Mechanics Remix)
TTITLE1=Avalon - Funky Voodoo (Captain Hook Remix)
TTITLE2=Avalon vs Lucas - Stinking Warehouse (Loud Remix)
TTITLE3=Avalon vs Mr Peculiar - Aggressive Progressive (Burn in noise remix)
TTITLE4=Avalon vs Cosmosis - Destiny Awaits (Cosmosis Remix)
TTITLE5=Avalon - Teleporter (Laughing BUddha Remix)
TTITLE6=Avalon - Out there (Tristan Remix)
TTITLE7=Avalon - Swamp Funk (Master Blasters Remix)
TTITLE8=Avalon - Distant Futures (Dickster Remix)
TTITLE9=Avalon vs Dickster - Into the new world
EXTD=
EXTT0=
EXTT1=
EXTT2=
EXTT3=
EXTT4=
EXTT5=
EXTT6=
EXTT7=
EXTT8=
EXTT9=
PLAYORDER=
